<svg width="16" height="14" viewBox="0 0 16 14" fill="none" xmlns="http://www.w3.org/2000/svg">
<path d="M13.8921 2.07357C13.5516 1.73291 13.1473 1.46267 12.7023 1.2783C12.2574 1.09392 11.7804 0.999023 11.2988 0.999023C10.8171 0.999023 10.3402 1.09392 9.89521 1.2783C9.45023 1.46267 9.04595 1.73291 8.70544 2.07357L7.99878 2.78024L7.29211 2.07357C6.60432 1.38578 5.67147 0.99938 4.69878 0.99938C3.72609 0.99938 2.79324 1.38578 2.10544 2.07357C1.41765 2.76137 1.03125 3.69422 1.03125 4.66691C1.03125 5.6396 1.41765 6.57245 2.10544 7.26024L2.81211 7.96691L7.99878 13.1536L13.1854 7.96691L13.8921 7.26024C14.2328 6.91974 14.503 6.51545 14.6874 6.07048C14.8718 5.6255 14.9667 5.14857 14.9667 4.66691C14.9667 4.18525 14.8718 3.70831 14.6874 3.26334C14.503 2.81836 14.2328 2.41408 13.8921 2.07357Z" stroke="#475467" stroke-linecap="round" stroke-linejoin="round"/>
</svg>
