<svg width="370" height="382" viewBox="0 0 370 382" fill="none" xmlns="http://www.w3.org/2000/svg">
<path opacity="0.1" d="M52.7869 59.2074L178.091 121.667C182.443 123.836 187.557 123.836 191.909 121.667L317.213 59.2074C332.575 38.9581 363.298 -1.22657 363.298 0.0287363V97.8897C363.298 103.73 360.039 109.078 354.859 111.744L228.501 176.756C225.365 178.369 224.72 182.586 227.229 185.069L254.432 211.98C256.1 213.629 258.663 213.95 260.683 212.762L331.341 171.223C333.313 170.064 335.808 170.339 337.482 171.9L368.348 200.683C370.864 203.029 370.445 207.136 367.508 208.922L334.663 228.898L195.962 382L229.518 273.282L189.114 220.182C187.043 217.46 182.957 217.46 180.886 220.182L140.482 273.282L174.038 382L35.3375 228.898L2.49208 208.922C-0.444821 207.136 -0.863852 203.029 1.65154 200.683L32.5182 171.9C34.1916 170.339 36.6874 170.064 38.6586 171.223L109.317 212.762C111.337 213.95 113.9 213.629 115.568 211.98L142.771 185.069C145.28 182.586 144.635 178.369 141.499 176.756L15.1412 111.744C9.96054 109.078 6.70252 103.73 6.70252 97.8897V0.0287363C6.70252 -1.22657 37.4255 38.9581 52.7869 59.2074Z" fill="url(#paint0_linear_4589_30074)"/>
<defs>
<linearGradient id="paint0_linear_4589_30074" x1="4.018" y1="208.919" x2="267.331" y2="70.8233" gradientUnits="userSpaceOnUse">
<stop stop-color="#ED1FFF"/>
<stop offset="0.164386" stop-color="#7867FC"/>
<stop offset="0.292124" stop-color="#46B5D4"/>
<stop offset="0.463949" stop-color="#24FCDC"/>
<stop offset="0.820802" stop-color="#52FA54"/>
<stop offset="1" stop-color="#F5923C"/>
</linearGradient>
</defs>
</svg>
