<?xml version="1.0" encoding="UTF-8"?>
<svg xmlns="http://www.w3.org/2000/svg" version="1.1" viewBox="0 0 339 208.9">
  <defs>
    <style>
      .cls-1 {
        fill: #1e2022;
      }
    </style>
  </defs>
  <!-- Generator: Adobe Illustrator 28.7.1, SVG Export Plug-In . SVG Version: 1.2.0 Build 142)  -->
  <g>
    <g id="_Слой_1" data-name="Слой_1">
      <g id="_Слой_1-2" data-name="_Слой_1">
        <path class="cls-1" d="M34.2,104.4l68.8-5.1c2.4,0,4.5-1.4,5.9-3.4l38.8-57c1.8-12.3,5.3-36.6,5.5-36l23.5,40.7c1.4,2.4,1.4,5.5-.4,7.9l-38.6,58.3c-1,1.4-.2,3.4,1.4,3.8l18.2,4.4c1.2.2,2.4-.2,3-1.2l20.4-34.8c.6-1,1.8-1.4,2.8-1.2l20.2,4.4c1.6.4,2.4,2.2,1.6,3.6l-9.3,16.4-22.7,98.1-11.7-53.6-30.1-12.1c-1.6-.6-3.4.4-3.6,2l-4.5,32,40.5,37-96.3-29.3h-19c-1.8,0-2.8-1.8-2.4-3.4l6.3-19.6c.4-1,1.4-1.8,2.6-1.8h40.3c1.2-.2,2.2-1,2.6-2.2l5.1-18c.4-1.6-.8-3.2-2.6-3.2l-69.8,4.4c-2.8,0-5.5-1.2-6.9-3.8L0,91.3c-.4-.6,22.5,8.5,34,13.3l.2-.2Z"/>
      </g>
    </g>
  </g>
</svg>