<?xml version="1.0" encoding="UTF-8"?>
<svg xmlns="http://www.w3.org/2000/svg" version="1.1" viewBox="0 0 244.3 209.9">
  <defs>
    <style>
      .cls-1 {
        fill: #4d4d4d;
      }

      .cls-2 {
        fill: #fff;
      }

      .cls-3 {
        opacity: .2;
      }
    </style>
  </defs>
  <!-- Generator: Adobe Illustrator 28.7.1, SVG Export Plug-In . SVG Version: 1.2.0 Build 142)  -->
  <g>
    <g id="_Слой_1" data-name="Слой_1">
      <g class="cls-3">
        <path class="cls-2" d="M3.7,126.1l9.2,4.4c.3.1.7.1,1,0l9.2-4.4c1.1-1.4,3.4-4.3,3.4-4.2v6.9c0,.4-.2.8-.6,1l-9.2,4.6c-.2.1-.2.4,0,.6l2,1.9c.1.1.3.1.4,0l5.2-2.9h.4l2.2,2.1c.2.2.1.4,0,.6l-2.4,1.4-10.1,10.8,2.4-7.7-2.9-3.7c-.1-.2-.4-.2-.6,0l-2.9,3.7,2.4,7.7-10.1-10.8-2.4-1.4c-.2-.1-.2-.4,0-.6l2.2-2.1c.1-.1.3-.1.4,0l5.2,2.9h.4l2-1.9c.2-.2.1-.5,0-.6l-9.2-4.6c-.4-.2-.6-.6-.6-1v-6.9c0,0,2.2,2.7,3.4,4.2h-.4Z"/>
        <path class="cls-1" d="M3.6,65.2l9.2,4.4c.3.1.7.1,1,0l9.2-4.4c1.1-1.4,3.4-4.3,3.4-4.2v6.9c0,.4-.2.8-.6,1l-9.2,4.6c-.2.1-.2.4,0,.6l2,1.9c.1.1.3.1.4,0l5.2-2.9c.1,0,.3,0,.4,0l2.2,2.1c.2.2.1.4,0,.6l-2.4,1.4-10.1,10.8,2.4-7.7-2.9-3.7c-.1-.2-.4-.2-.6,0l-2.9,3.7,2.4,7.7-10.1-10.8-2.4-1.4c-.2-.1-.2-.4,0-.6l2.2-2.1c.1-.1.3-.1.4,0l5.2,2.9c.1,0,.3,0,.4,0l2-1.9c.2-.2.1-.5,0-.6l-9.2-4.6c-.4-.2-.6-.6-.6-1v-6.9c0,0,2.2,2.7,3.4,4.2h-.4Z"/>
        <path class="cls-2" d="M64.6,65.2l9.2,4.4c.3.1.7.1,1,0l9.2-4.4c1.1-1.4,3.4-4.3,3.4-4.2v6.9c0,.4-.2.8-.6,1l-9.2,4.6c-.2.1-.2.4,0,.6l2,1.9c.1.1.3.1.4,0l5.2-2.9c.1,0,.3,0,.4,0l2.2,2.1c.2.2.1.4,0,.6l-2.4,1.4-10.1,10.8,2.4-7.7-2.9-3.7c-.1-.2-.4-.2-.6,0l-2.9,3.7,2.4,7.7-10.1-10.8-2.4-1.4c-.2-.1-.2-.4,0-.6l2.2-2.1c.1-.1.3-.1.4,0l5.2,2.9c.1,0,.3,0,.4,0l2-1.9c.2-.2.1-.5,0-.6l-9.2-4.6c-.4-.2-.6-.6-.6-1v-6.9c0,0,2.2,2.7,3.4,4.2h-.4Z"/>
        <path class="cls-2" d="M125.4,65.2l9.2,4.4c.3.1.7.1,1,0l9.2-4.4c1.1-1.4,3.4-4.3,3.4-4.2v6.9c0,.4-.2.8-.6,1l-9.2,4.6c-.2.1-.2.4,0,.6l2,1.9c.1.1.3.1.4,0l5.2-2.9c.1,0,.3,0,.4,0l2.2,2.1c.2.2.1.4,0,.6l-2.4,1.4-10.1,10.8,2.4-7.7-2.9-3.7c-.1-.2-.4-.2-.6,0l-2.9,3.7,2.4,7.7-10.1-10.8-2.4-1.4c-.2-.1-.2-.4,0-.6l2.2-2.1c.1-.1.3-.1.4,0l5.2,2.9c.1,0,.3,0,.4,0l2-1.9c.2-.2.1-.5,0-.6l-9.2-4.6c-.4-.2-.6-.6-.6-1v-6.9c0,0,2.2,2.7,3.4,4.2h-.4Z"/>
        <path class="cls-1" d="M187,65.2l9.2,4.4c.3.1.7.1,1,0l9.2-4.4c1.1-1.4,3.4-4.3,3.4-4.2v6.9c0,.4-.2.8-.6,1l-9.2,4.6c-.2.1-.2.4,0,.6l2,1.9c.1.1.3.1.4,0l5.2-2.9c.1,0,.3,0,.4,0l2.2,2.1c.2.2.1.4,0,.6l-2.4,1.4-10.1,10.8,2.4-7.7-2.9-3.7c-.1-.2-.4-.2-.6,0l-2.9,3.7,2.4,7.7-10.1-10.8-2.4-1.4c-.2-.1-.2-.4,0-.6l2.2-2.1c.1-.1.3-.1.4,0l5.2,2.9c.1,0,.3,0,.4,0l2-1.9c.2-.2.1-.5,0-.6l-9.2-4.6c-.4-.2-.6-.6-.6-1v-6.9c0,0,2.2,2.7,3.4,4.2h-.4Z"/>
        <path class="cls-2" d="M187,126.1l9.2,4.4c.3.1.7.1,1,0l9.2-4.4c1.1-1.4,3.4-4.3,3.4-4.2v6.9c0,.4-.2.8-.6,1l-9.2,4.6c-.2.1-.2.4,0,.6l2,1.9c.1.1.3.1.4,0l5.2-2.9h.4l2.2,2.1c.2.2.1.4,0,.6l-2.4,1.4-10.1,10.8,2.4-7.7-2.9-3.7c-.1-.2-.4-.2-.6,0l-2.9,3.7,2.4,7.7-10.1-10.8-2.4-1.4c-.2-.1-.2-.4,0-.6l2.2-2.1c.1-.1.3-.1.4,0l5.2,2.9h.4l2-1.9c.2-.2.1-.5,0-.6l-9.2-4.6c-.4-.2-.6-.6-.6-1v-6.9c0,0,2.2,2.7,3.4,4.2h-.4Z"/>
        <path class="cls-2" d="M125.4,126.1l9.2,4.4c.3.1.7.1,1,0l9.2-4.4c1.1-1.4,3.4-4.3,3.4-4.2v6.9c0,.4-.2.8-.6,1l-9.2,4.6c-.2.1-.2.4,0,.6l2,1.9c.1.1.3.1.4,0l5.2-2.9h.4l2.2,2.1c.2.2.1.4,0,.6l-2.4,1.4-10.1,10.8,2.4-7.7-2.9-3.7c-.1-.2-.4-.2-.6,0l-2.9,3.7,2.4,7.7-10.1-10.8-2.4-1.4c-.2-.1-.2-.4,0-.6l2.2-2.1c.1-.1.3-.1.4,0l5.2,2.9h.4l2-1.9c.2-.2.1-.5,0-.6l-9.2-4.6c-.4-.2-.6-.6-.6-1v-6.9c0,0,2.2,2.7,3.4,4.2h-.4Z"/>
        <path class="cls-1" d="M64.6,126.1l9.2,4.4c.3.1.7.1,1,0l9.2-4.4c1.1-1.4,3.4-4.3,3.4-4.2v6.9c0,.4-.2.8-.6,1l-9.2,4.6c-.2.1-.2.4,0,.6l2,1.9c.1.1.3.1.4,0l5.2-2.9h.4l2.2,2.1c.2.2.1.4,0,.6l-2.4,1.4-10.1,10.8,2.4-7.7-2.9-3.7c-.1-.2-.4-.2-.6,0l-2.9,3.7,2.4,7.7-10.1-10.8-2.4-1.4c-.2-.1-.2-.4,0-.6l2.2-2.1c.1-.1.3-.1.4,0l5.2,2.9h.4l2-1.9c.2-.2.1-.5,0-.6l-9.2-4.6c-.4-.2-.6-.6-.6-1v-6.9c0,0,2.2,2.7,3.4,4.2h-.4Z"/>
        <path class="cls-1" d="M3.7,187.1l9.2,4.4c.3.1.7.1,1,0l9.2-4.4c1.1-1.4,3.4-4.3,3.4-4.2v6.9c0,.4-.2.8-.6,1l-9.2,4.6c-.2.1-.2.4,0,.6l2,1.9c.1.1.3.1.4,0l5.2-2.9h.4l2.2,2.1c.2.2.1.4,0,.6l-2.4,1.4-10.1,10.8,2.4-7.7-2.9-3.7c-.1-.2-.4-.2-.6,0l-2.9,3.7,2.4,7.7-10.1-10.8-2.4-1.4c-.2-.1-.2-.4,0-.6l2.2-2.1c.1-.1.3-.1.4,0l5.2,2.9h.4l2-1.9c.2-.2.1-.5,0-.6l-9.2-4.6c-.4-.2-.6-.6-.6-1v-6.9s2.2,2.7,3.4,4.2h-.4Z"/>
        <path class="cls-2" d="M64.5,187.1l9.2,4.4c.3.1.7.1,1,0l9.2-4.4c1.1-1.4,3.4-4.3,3.4-4.2v6.9c0,.4-.2.8-.6,1l-9.2,4.6c-.2.1-.2.4,0,.6l2,1.9c.1.1.3.1.4,0l5.2-2.9h.4l2.2,2.1c.2.2.1.4,0,.6l-2.4,1.4-10.1,10.8,2.4-7.7-2.9-3.7c-.1-.2-.4-.2-.6,0l-2.9,3.7,2.4,7.7-10.1-10.8-2.4-1.4c-.2-.1-.2-.4,0-.6l2.2-2.1c.1-.1.3-.1.4,0l5.2,2.9h.4l2-1.9c.2-.2.1-.5,0-.6l-9.2-4.6c-.4-.2-.6-.6-.6-1v-6.9s2.2,2.7,3.4,4.2h-.4Z"/>
        <path class="cls-2" d="M125.3,187.1l9.2,4.4c.3.1.7.1,1,0l9.2-4.4c1.1-1.4,3.4-4.3,3.4-4.2v6.9c0,.4-.2.8-.6,1l-9.2,4.6c-.2.1-.2.4,0,.6l2,1.9c.1.1.3.1.4,0l5.2-2.9h.4l2.2,2.1c.2.2.1.4,0,.6l-2.4,1.4-10.1,10.8,2.4-7.7-2.9-3.7c-.1-.2-.4-.2-.6,0l-2.9,3.7,2.4,7.7-10.1-10.8-2.4-1.4c-.2-.1-.2-.4,0-.6l2.2-2.1c.1-.1.3-.1.4,0l5.2,2.9h.4l2-1.9c.2-.2.1-.5,0-.6l-9.2-4.6c-.4-.2-.6-.6-.6-1v-6.9s2.2,2.7,3.4,4.2h-.4Z"/>
        <path class="cls-1" d="M187,187.1l9.2,4.4c.3.1.7.1,1,0l9.2-4.4c1.1-1.4,3.4-4.3,3.4-4.2v6.9c0,.4-.2.8-.6,1l-9.2,4.6c-.2.1-.2.4,0,.6l2,1.9c.1.1.3.1.4,0l5.2-2.9h.4l2.2,2.1c.2.2.1.4,0,.6l-2.4,1.4-10.1,10.8,2.4-7.7-2.9-3.7c-.1-.2-.4-.2-.6,0l-2.9,3.7,2.4,7.7-10.1-10.8-2.4-1.4c-.2-.1-.2-.4,0-.6l2.2-2.1c.1-.1.3-.1.4,0l5.2,2.9h.4l2-1.9c.2-.2.1-.5,0-.6l-9.2-4.6c-.4-.2-.6-.6-.6-1v-6.9s2.2,2.7,3.4,4.2h-.4Z"/>
        <path class="cls-2" d="M4,4.2l9.2,4.4c.3.1.7.1,1,0l9.2-4.4C24.5,2.8,26.7-.1,26.7,0v6.9c0,.4-.2.8-.6,1l-9.2,4.6c-.2.1-.2.4,0,.6l2,1.9c.1.1.3.1.4,0l5.2-2.9h.4l2.2,2.1c.2.2.1.4,0,.6l-2.4,1.4-10.1,10.8,2.4-7.7-2.9-3.7c-.1-.2-.4-.2-.6,0l-2.9,3.7,2.4,7.7L3,16.2l-2.4-1.4c-.2-.1-.2-.4,0-.6l2.2-2.1c.1-.1.3-.1.4,0l5.2,2.9h.4l2-1.9c.2-.2.1-.5,0-.6L1.7,7.9c-.4-.2-.6-.6-.6-1V0c0,0,2.2,2.7,3.4,4.2h-.4Z"/>
        <path class="cls-1" d="M3.9-56.7l9.2,4.4c.3.1.7.1,1,0l9.2-4.4c1.1-1.4,3.4-4.3,3.4-4.2v6.9c0,.4-.2.8-.6,1l-9.2,4.6c-.2.1-.2.4,0,.6l2,1.9c.1.1.3.1.4,0l5.2-2.9c.1,0,.3,0,.4,0l2.2,2.1c.2.2.1.4,0,.6l-2.4,1.4-10.1,10.8,2.4-7.7-2.9-3.7c-.1-.2-.4-.2-.6,0l-2.9,3.7,2.4,7.7-10.1-10.8-2.4-1.4c-.2-.1-.2-.4,0-.6l2.2-2.1c.1-.1.3-.1.4,0l5.2,2.9c.1,0,.3,0,.4,0l2-1.9c.2-.2.1-.5,0-.6l-9.2-4.6c-.4-.2-.6-.6-.6-1v-6.9c0,0,2.2,2.7,3.4,4.2h-.4Z"/>
        <path class="cls-2" d="M64.9-56.7l9.2,4.4c.3.1.7.1,1,0l9.2-4.4c1.1-1.4,3.4-4.3,3.4-4.2v6.9c0,.4-.2.8-.6,1l-9.2,4.6c-.2.1-.2.4,0,.6l2,1.9c.1.1.3.1.4,0l5.2-2.9c.1,0,.3,0,.4,0l2.2,2.1c.2.2.1.4,0,.6l-2.4,1.4-10.1,10.8,2.4-7.7-2.9-3.7c-.1-.2-.4-.2-.6,0l-2.9,3.7,2.4,7.7-10.1-10.8-2.4-1.4c-.2-.1-.2-.4,0-.6l2.2-2.1c.1-.1.3-.1.4,0l5.2,2.9c.1,0,.3,0,.4,0l2-1.9c.2-.2.1-.5,0-.6l-9.2-4.6c-.4-.2-.6-.6-.6-1v-6.9c0,0,2.2,2.7,3.4,4.2h-.4Z"/>
        <path class="cls-2" d="M125.7-56.7l9.2,4.4c.3.1.7.1,1,0l9.2-4.4c1.1-1.4,3.4-4.3,3.4-4.2v6.9c0,.4-.2.8-.6,1l-9.2,4.6c-.2.1-.2.4,0,.6l2,1.9c.1.1.3.1.4,0l5.2-2.9c.1,0,.3,0,.4,0l2.2,2.1c.2.2.1.4,0,.6l-2.4,1.4-10.1,10.8,2.4-7.7-2.9-3.7c-.1-.2-.4-.2-.6,0l-2.9,3.7,2.4,7.7-10.1-10.8-2.4-1.4c-.2-.1-.2-.4,0-.6l2.2-2.1c.1-.1.3-.1.4,0l5.2,2.9c.1,0,.3,0,.4,0l2-1.9c.2-.2.1-.5,0-.6l-9.2-4.6c-.4-.2-.6-.6-.6-1v-6.9c0,0,2.2,2.7,3.4,4.2h-.4Z"/>
        <path class="cls-1" d="M187.3-56.7l9.2,4.4c.3.1.7.1,1,0l9.2-4.4c1.1-1.4,3.4-4.3,3.4-4.2v6.9c0,.4-.2.8-.6,1l-9.2,4.6c-.2.1-.2.4,0,.6l2,1.9c.1.1.3.1.4,0l5.2-2.9c.1,0,.3,0,.4,0l2.2,2.1c.2.2.1.4,0,.6l-2.4,1.4-10.1,10.8,2.4-7.7-2.9-3.7c-.1-.2-.4-.2-.6,0l-2.9,3.7,2.4,7.7-10.1-10.8-2.4-1.4c-.2-.1-.2-.4,0-.6l2.2-2.1c.1-.1.3-.1.4,0l5.2,2.9c.1,0,.3,0,.4,0l2-1.9c.2-.2.1-.5,0-.6l-9.2-4.6c-.4-.2-.6-.6-.6-1v-6.9c0,0,2.2,2.7,3.4,4.2h-.4Z"/>
        <path class="cls-2" d="M187.3,4.2l9.2,4.4c.3.1.7.1,1,0l9.2-4.4c1.1-1.4,3.4-4.3,3.4-4.2v6.9c0,.4-.2.8-.6,1l-9.2,4.6c-.2.1-.2.4,0,.6l2,1.9c.1.1.3.1.4,0l5.2-2.9h.4l2.2,2.1c.2.2.1.4,0,.6l-2.4,1.4-10.1,10.8,2.4-7.7-2.9-3.7c-.1-.2-.4-.2-.6,0l-2.9,3.7,2.4,7.7-10.1-10.8-2.4-1.4c-.2-.1-.2-.4,0-.6l2.2-2.1c.1-.1.3-.1.4,0l5.2,2.9h.4l2-1.9c.2-.2.1-.5,0-.6l-9.2-4.6c-.4-.2-.6-.6-.6-1V0c0,0,2.2,2.7,3.4,4.2h-.4Z"/>
        <path class="cls-2" d="M125.7,4.2l9.2,4.4c.3.1.7.1,1,0l9.2-4.4c1.1-1.4,3.4-4.3,3.4-4.2v6.9c0,.4-.2.8-.6,1l-9.2,4.6c-.2.1-.2.4,0,.6l2,1.9c.1.1.3.1.4,0l5.2-2.9h.4l2.2,2.1c.2.2.1.4,0,.6l-2.4,1.4-10.1,10.8,2.4-7.7-2.9-3.7c-.1-.2-.4-.2-.6,0l-2.9,3.7,2.4,7.7-10.1-10.8-2.4-1.4c-.2-.1-.2-.4,0-.6l2.2-2.1c.1-.1.3-.1.4,0l5.2,2.9h.4l2-1.9c.2-.2.1-.5,0-.6l-9.2-4.6c-.4-.2-.6-.6-.6-1V0c0,0,2.2,2.7,3.4,4.2h-.4Z"/>
        <path class="cls-1" d="M64.9,4.2l9.2,4.4c.3.1.7.1,1,0l9.2-4.4c1.1-1.4,3.4-4.3,3.4-4.2v6.9c0,.4-.2.8-.6,1l-9.2,4.6c-.2.1-.2.4,0,.6l2,1.9c.1.1.3.1.4,0l5.2-2.9h.4l2.2,2.1c.2.2.1.4,0,.6l-2.4,1.4-10.1,10.8,2.4-7.7-2.9-3.7c-.1-.2-.4-.2-.6,0l-2.9,3.7,2.4,7.7-10.1-10.8-2.4-1.4c-.2-.1-.2-.4,0-.6l2.2-2.1c.1-.1.3-.1.4,0l5.2,2.9h.4l2-1.9c.2-.2.1-.5,0-.6l-9.2-4.6c-.4-.2-.6-.6-.6-1V0c0,0,2.2,2.7,3.4,4.2h-.4Z"/>
      </g>
    </g>
  </g>
</svg>