<svg width="77" height="71" viewBox="0 0 77 71" fill="none" xmlns="http://www.w3.org/2000/svg">
<path fill-rule="evenodd" clip-rule="evenodd" d="M35.7013 0C58.5111 0 77 16.6288 77 37.1419C77 46.5642 73.0967 55.17 66.6642 61.7197C67.1943 58.7673 67.4698 55.7261 67.4698 52.6169C67.4698 45.369 65.9712 38.4909 63.2822 32.2873C61.2239 35.4024 56.7164 40.5114 50.1003 43.4461C49.6653 43.6385 49.2259 43.821 48.7825 43.9934L51.513 48.0818L56.6009 45.727C56.9326 49.1527 56.3907 51.3123 54.9721 52.1998C52.8398 53.531 47.9769 55.7764 43.7804 56.4243C40.1022 56.7201 36.6253 54.5517 35.2571 53.3772L41.4763 52.1998L37.8248 46.7535C33.5068 47.4043 33.2699 47.3925 31.0192 47.3688C29.5206 47.3511 27.5393 46.0435 25.0813 43.4461C28.1613 42.9057 31.2141 42.2206 34.2295 41.393L29.3429 34.1037C21.5541 38.0205 17.2954 44.7418 19.7594 49.0107C28.487 60.4447 42.045 67.9056 57.1814 67.9056L57.8448 67.8997C52.7805 69.8936 47.1832 71 41.2987 71C18.4889 71 0 54.3712 0 33.8581C0 24.4358 3.90331 15.83 10.3358 9.28029C9.79852 12.2848 9.52896 15.331 9.53023 18.3831C9.53023 25.5718 11.0021 32.3967 13.6527 38.5589C15.5836 35.6686 19.5758 31.1335 25.3597 28.1693L22.5373 23.9595C21.5185 23.9595 17.6833 27.3912 15.8946 29.107C15.6512 26.94 15.8099 24.7468 16.3625 22.6372C17.1947 19.4363 30.6342 13.0522 34.2295 13.703C36.6253 14.1349 39.3233 15.7383 42.3263 18.5162C39.6965 18.3831 34.724 18.9895 32.651 19.9244L35.9146 24.7317C41.4082 23.6371 43.4665 23.4655 46.2563 23.498C48.1132 23.5187 49.9612 24.85 51.7943 27.4918C47.9236 28.1693 45.664 28.613 39.6965 30.3939L44.811 38.0501C54.821 34.154 60.2525 26.9238 57.0244 21.6698C48.2879 10.3453 34.8692 3.09442 19.8186 3.09442L19.1552 3.10033C24.2195 1.10642 29.8168 0 35.7013 0Z" fill="url(#paint0_linear_5250_42555)"/>
<defs>
<linearGradient id="paint0_linear_5250_42555" x1="24.64" y1="-2.10507e-06" x2="63.0628" y2="69.7516" gradientUnits="userSpaceOnUse">
<stop stop-color="#0CF69D"/>
<stop offset="1" stop-color="#A962FF"/>
</linearGradient>
</defs>
</svg>
