<?xml version="1.0" encoding="UTF-8"?>
<svg xmlns="http://www.w3.org/2000/svg" version="1.1"  viewBox="0 0 56 56">
  <defs>
    <style>
      .cls-1 {
        stroke: url(#_Безымянный_градиент_2);
      }

      .cls-1, .cls-2 {
        fill: none;
        stroke-linecap: round;
        stroke-linejoin: round;
        stroke-width: 2px;
      }

      .cls-2 {
        stroke: url(#_Безымянный_градиент);
      }
    </style>
    <linearGradient id="_Безымянный_градиент" data-name="Безымянный градиент" x1="12.8" y1="48.1" x2="34" y2="4.7" gradientTransform="translate(0 58) scale(1 -1)" gradientUnits="userSpaceOnUse">
      <stop offset="0" stop-color="#0cf69d"/>
      <stop offset="1" stop-color="#a962ff"/>
    </linearGradient>
    <linearGradient id="_Безымянный_градиент_2" data-name="Безымянный градиент 2" x1="12.8" y1="48.1" x2="34" y2="4.7" gradientTransform="translate(0 58) scale(1 -1)" gradientUnits="userSpaceOnUse">
      <stop offset="0" stop-color="#0cf69d"/>
      <stop offset="1" stop-color="#a962ff"/>
    </linearGradient>
  </defs>
  <!-- Generator: Adobe Illustrator 28.7.1, SVG Export Plug-In . SVG Version: 1.2.0 Build 142)  -->
  <g>
    <g id="users-gradient">
      <path class="cls-2" d="M39.7,49v-4.7c0-2.5-1-4.8-2.7-6.6-1.8-1.8-4.1-2.7-6.6-2.7H11.7c-2.5,0-4.8,1-6.6,2.7-1.8,1.8-2.7,4.1-2.7,6.6v4.7M53.7,49v-4.7c0-2.1-.7-4.1-2-5.7-1.3-1.6-3-2.8-5-3.3M37.3,7.3c2,.5,3.8,1.7,5.1,3.3,1.3,1.6,2,3.7,2,5.7s-.7,4.1-2,5.7c-1.3,1.6-3.1,2.8-5.1,3.3M30.3,16.3c0,5.2-4.2,9.3-9.3,9.3s-9.3-4.2-9.3-9.3,4.2-9.3,9.3-9.3,9.3,4.2,9.3,9.3Z"/>
      <path class="cls-1" d="M39.7,49v-4.7c0-2.5-1-4.8-2.7-6.6-1.8-1.8-4.1-2.7-6.6-2.7H11.7c-2.5,0-4.8,1-6.6,2.7-1.8,1.8-2.7,4.1-2.7,6.6v4.7M53.7,49v-4.7c0-2.1-.7-4.1-2-5.7-1.3-1.6-3-2.8-5-3.3M37.3,7.3c2,.5,3.8,1.7,5.1,3.3,1.3,1.6,2,3.7,2,5.7s-.7,4.1-2,5.7c-1.3,1.6-3.1,2.8-5.1,3.3M30.3,16.3c0,5.2-4.2,9.3-9.3,9.3s-9.3-4.2-9.3-9.3,4.2-9.3,9.3-9.3,9.3,4.2,9.3,9.3Z"/>
    </g>
  </g>
</svg>