<?xml version="1.0" encoding="UTF-8"?>
<svg xmlns="http://www.w3.org/2000/svg" version="1.1"  viewBox="0 0 56 56">
  <defs>
    <style>
      .cls-1 {
        fill: none;
        stroke: url(#_Безымянный_градиент);
        stroke-linecap: round;
        stroke-linejoin: round;
        stroke-width: 2px;
      }
    </style>
    <linearGradient id="_Безымянный_градиент" data-name="Безымянный градиент" x1="11.8" y1="46.3" x2="40.4" y2="7.9" gradientTransform="translate(0 58) scale(1 -1)" gradientUnits="userSpaceOnUse">
      <stop offset="0" stop-color="#0cf69d"/>
      <stop offset="1" stop-color="#a962ff"/>
    </linearGradient>
  </defs>
  <!-- Generator: Adobe Illustrator 28.7.1, SVG Export Plug-In . SVG Version: 1.2.0 Build 142)  -->
  <g>
    <g id="file-text">
      <path class="cls-1" d="M32.7,4.7H14c-1.2,0-2.4.5-3.3,1.4-.9.9-1.4,2.1-1.4,3.3v37.3c0,1.2.5,2.4,1.4,3.3.9.9,2.1,1.4,3.3,1.4h28c1.2,0,2.4-.5,3.3-1.4.9-.9,1.4-2.1,1.4-3.3v-28M32.7,4.7l14,14M32.7,4.7v14h14M37.3,30.3h-18.7M37.3,39.7h-18.7M23.3,21h-4.7"/>
    </g>
  </g>
</svg>