<?xml version="1.0" encoding="UTF-8"?>
<svg xmlns="http://www.w3.org/2000/svg" version="1.1" viewBox="0 0 56 56">
  <defs>
    <style>
      .cls-1 {
        fill: none;
        stroke: #667085;
        stroke-width: 2px;
      }
    </style>
  </defs>
  <!-- Generator: Adobe Illustrator 28.7.1, SVG Export Plug-In . SVG Version: 1.2.0 Build 142)  -->
  <g>
    <g id="game">
      <path class="cls-1" d="M16.1,9.6c1-.3,2.1-.4,3.1,0,3,1,5.7,2.8,8.9,2.9,3.2,0,5.9-1.9,8.9-2.8,1.5-.5,3.1-.2,4.6.4,2.6,1.2,4.6,3.4,6.2,5.7,2.4,3.7,4,7.8,5.1,12.1,1,4.2,1.6,8.7.7,12.9-.4,1.9-1.4,4-3.5,4.4-2.6.3-5-1.3-7-2.8-3.7-2.8-7.2-6.1-11.8-7.2-3-.7-6.1-.4-9,.8-2.7,1.2-4.9,3.2-7,5.2-1.8,1.7-3.7,3.4-6.1,3.9-1.4.3-2.9.5-4.1-.3-1.3-.9-1.9-2.5-2.2-4-.7-3.3-.4-6.7.2-9.9,1-5.2,2.7-10.4,5.6-14.9,1.8-2.8,4.3-5.5,7.6-6.4ZM37.8,18c-1,.4-1.4,1.9-.5,2.6.9.9,2.5.3,2.6-.9.2-1.1-1.1-2.2-2.1-1.7ZM33.1,22.7c-1.1.3-1.5,1.8-.7,2.6.7.9,2.3.5,2.6-.6.4-1.1-.8-2.4-1.9-2ZM42.5,22.7c-1,.4-1.3,1.7-.6,2.5.7.9,2.3.6,2.7-.5.5-1.2-.9-2.5-2.1-2ZM37.8,27.4c-1.1.4-1.3,1.9-.5,2.6.9.8,2.5.3,2.6-.9.2-1.2-1.1-2.2-2.1-1.7Z"/>
      <path class="cls-1" d="M21,23.3c0,2.6-2.1,4.7-4.7,4.7s-4.7-2.1-4.7-4.7,2.1-4.7,4.7-4.7,4.7,2.1,4.7,4.7Z"/>
    </g>
  </g>
</svg>