<?xml version="1.0" encoding="UTF-8"?>
<svg xmlns="http://www.w3.org/2000/svg" version="1.1" xmlns:xlink="http://www.w3.org/1999/xlink" viewBox="0 0 43 42">
  <defs>
    <style>
      .cls-1 {
        fill: #fff;
      }

      .cls-2 {
        fill: none;
      }

      .cls-3 {
        clip-path: url(#clippath);
      }
    </style>
    <clipPath id="clippath">
      <rect class="cls-2" x=".5" width="42" height="42"/>
    </clipPath>
  </defs>
  <!-- Generator: Adobe Illustrator 28.7.1, SVG Export Plug-In . SVG Version: 1.2.0 Build 142)  -->
  <g>
    <g id="linkedin">
      <g class="cls-3">
        <path class="cls-1" d="M13,35.8h-6.2V15.7h6.2v20ZM9.8,13c-2,0-3.6-1.6-3.6-3.6s1.6-3.6,3.6-3.6,3.6,1.6,3.6,3.6-1.6,3.6-3.6,3.6ZM36.3,35.8h-6.2v-9.7c0-2.3,0-5.3-3.2-5.3s-3.7,2.5-3.7,5.2v9.9h-6.2V15.7h6v2.7h0c.8-1.6,2.9-3.2,5.9-3.2,6.3,0,7.5,4.2,7.5,9.5v11Z"/>
      </g>
    </g>
  </g>
</svg>