<svg width="229" height="56" viewBox="0 0 229 56" fill="none" xmlns="http://www.w3.org/2000/svg">
<path d="M12.4214 14.8897L25.2904 21.103C25.7374 21.3188 26.2626 21.3188 26.7096 21.103L39.5786 14.8897C41.1563 12.8754 44.3116 8.87799 44.3116 9.00286V18.7377C44.3116 19.3186 43.977 19.8507 43.445 20.1159L30.4677 26.583C30.1456 26.7435 30.0793 27.163 30.337 27.41L33.1309 30.087C33.3021 30.251 33.5654 30.283 33.7729 30.1648L41.0297 26.0327C41.2321 25.9174 41.4884 25.9447 41.6603 26.1L44.8304 28.9632C45.0887 29.1966 45.0457 29.6052 44.7441 29.7829L41.3707 31.7699L27.1258 47L30.5722 36.1851L26.4225 30.9029C26.2098 30.6321 25.7902 30.6321 25.5775 30.9029L21.4278 36.1851L24.8742 47L10.6293 31.7699L7.25594 29.7829C6.95432 29.6052 6.91128 29.1966 7.16962 28.9632L10.3397 26.1C10.5116 25.9447 10.7679 25.9174 10.9703 26.0327L18.2271 30.1648C18.4346 30.283 18.6979 30.251 18.8691 30.087L21.663 27.41C21.9207 27.163 21.8544 26.7435 21.5323 26.583L8.55504 20.1159C8.02297 19.8507 7.68837 19.3186 7.68837 18.7377V9.00286C7.68837 8.87799 10.8437 12.8754 12.4214 14.8897Z" fill="url(#paint0_linear_5556_17904)"/>
<path d="M70.8164 36H59.8242C59.543 36 59.2383 35.9688 58.9102 35.9062C58.5898 35.8359 58.2695 35.7305 57.9492 35.5898C57.6367 35.4492 57.3359 35.2695 57.0469 35.0508C56.7578 34.8242 56.5 34.5547 56.2734 34.2422C56.0547 33.9219 55.8789 33.5547 55.7461 33.1406C55.6133 32.7188 55.5469 32.2461 55.5469 31.7227V23.4727C55.5469 23.1914 55.5781 22.8906 55.6406 22.5703C55.7109 22.2422 55.8164 21.9219 55.957 21.6094C56.0977 21.2891 56.2812 20.9844 56.5078 20.6953C56.7344 20.4062 57.0039 20.1523 57.3164 19.9336C57.6367 19.707 58.0039 19.5273 58.418 19.3945C58.832 19.2617 59.3008 19.1953 59.8242 19.1953H70.8164V22.2422H59.8242C59.4258 22.2422 59.1211 22.3477 58.9102 22.5586C58.6992 22.7695 58.5938 23.082 58.5938 23.4961V31.7227C58.5938 32.1133 58.6992 32.418 58.9102 32.6367C59.1289 32.8477 59.4336 32.9531 59.8242 32.9531H70.8164V36ZM89.707 24.8203C89.707 25.5156 89.6172 26.1367 89.4375 26.6836C89.2656 27.2305 89.0352 27.7148 88.7461 28.1367C88.457 28.5508 88.1172 28.9062 87.7266 29.2031C87.3438 29.5 86.9453 29.7461 86.5312 29.9414C86.1172 30.1289 85.6953 30.2656 85.2656 30.3516C84.8438 30.4375 84.4453 30.4805 84.0703 30.4805H82.8398V36H79.7695V30.4805H78.5508C78.1758 30.4805 77.7734 30.4375 77.3438 30.3516C76.9219 30.2656 76.5 30.1289 76.0781 29.9414C75.6641 29.7461 75.2656 29.5 74.8828 29.2031C74.5 28.9062 74.1602 28.5508 73.8633 28.1367C73.5742 27.7148 73.3398 27.2305 73.1602 26.6836C72.9883 26.1289 72.9023 25.5078 72.9023 24.8203V19.1953H75.9492V24.8203C75.9492 25.2188 76.0117 25.5781 76.1367 25.8984C76.2617 26.2109 76.4375 26.4805 76.6641 26.707C76.8906 26.9336 77.1641 27.1094 77.4844 27.2344C77.8125 27.3516 78.1758 27.4102 78.5742 27.4102H84.0703C84.3594 27.3633 84.6562 27.3047 84.9609 27.2344C85.2656 27.1562 85.543 27.0273 85.793 26.8477C86.043 26.668 86.25 26.418 86.4141 26.0977C86.5781 25.7773 86.6602 25.3516 86.6602 24.8203V19.1953H89.707V24.8203ZM107.496 36H96.5039C96.2227 36 95.918 35.9688 95.5898 35.9062C95.2695 35.8359 94.9492 35.7305 94.6289 35.5898C94.3164 35.4492 94.0156 35.2695 93.7266 35.0508C93.4375 34.8242 93.1797 34.5547 92.9531 34.2422C92.7344 33.9219 92.5586 33.5547 92.4258 33.1406C92.293 32.7188 92.2266 32.2461 92.2266 31.7227V23.4727C92.2266 23.1914 92.2578 22.8906 92.3203 22.5703C92.3906 22.2422 92.4961 21.9219 92.6367 21.6094C92.7773 21.2891 92.9609 20.9844 93.1875 20.6953C93.4141 20.4062 93.6836 20.1523 93.9961 19.9336C94.3164 19.707 94.6836 19.5273 95.0977 19.3945C95.5117 19.2617 95.9805 19.1953 96.5039 19.1953H107.496V22.2422H96.5039C96.1055 22.2422 95.8008 22.3477 95.5898 22.5586C95.3789 22.7695 95.2734 23.082 95.2734 23.4961V31.7227C95.2734 32.1133 95.3789 32.418 95.5898 32.6367C95.8086 32.8477 96.1133 32.9531 96.5039 32.9531H107.496V36ZM125.812 36H111.914C111.695 36 111.492 35.9609 111.305 35.8828C111.117 35.8047 110.953 35.6992 110.812 35.5664C110.68 35.4258 110.574 35.2617 110.496 35.0742C110.418 34.8867 110.379 34.6836 110.379 34.4648V19.1953H113.426V32.9531H125.812V36ZM145.43 29.2031C145.43 30.2266 145.254 31.168 144.902 32.0273C144.551 32.8867 144.062 33.6289 143.438 34.2539C142.812 34.8789 142.07 35.3672 141.211 35.7188C140.359 36.0625 139.43 36.2344 138.422 36.2344H134.297C133.289 36.2344 132.355 36.0625 131.496 35.7188C130.637 35.3672 129.895 34.8789 129.27 34.2539C128.645 33.6289 128.152 32.8867 127.793 32.0273C127.441 31.168 127.266 30.2266 127.266 29.2031V25.9922C127.266 24.9766 127.441 24.0391 127.793 23.1797C128.152 22.3125 128.645 21.5703 129.27 20.9531C129.895 20.3281 130.637 19.8398 131.496 19.4883C132.355 19.1367 133.289 18.9609 134.297 18.9609H138.422C139.43 18.9609 140.359 19.1367 141.211 19.4883C142.07 19.8398 142.812 20.3281 143.438 20.9531C144.062 21.5703 144.551 22.3125 144.902 23.1797C145.254 24.0391 145.43 24.9766 145.43 25.9922V29.2031ZM142.383 25.9922C142.383 25.3906 142.285 24.8477 142.09 24.3633C141.902 23.8711 141.633 23.4531 141.281 23.1094C140.938 22.7578 140.52 22.4883 140.027 22.3008C139.543 22.1055 139.008 22.0078 138.422 22.0078H134.297C133.703 22.0078 133.16 22.1055 132.668 22.3008C132.184 22.4883 131.766 22.7578 131.414 23.1094C131.062 23.4531 130.789 23.8711 130.594 24.3633C130.406 24.8477 130.312 25.3906 130.312 25.9922V29.2031C130.312 29.8047 130.406 30.3516 130.594 30.8438C130.789 31.3281 131.062 31.7461 131.414 32.0977C131.766 32.4414 132.184 32.7109 132.668 32.9062C133.16 33.0938 133.703 33.1875 134.297 33.1875H138.398C138.992 33.1875 139.531 33.0938 140.016 32.9062C140.508 32.7109 140.93 32.4414 141.281 32.0977C141.633 31.7461 141.902 31.3281 142.09 30.8438C142.285 30.3516 142.383 29.8047 142.383 29.2031V25.9922ZM165.234 34.6992C165.234 34.918 165.191 35.1211 165.105 35.3086C165.027 35.4961 164.918 35.6602 164.777 35.8008C164.645 35.9336 164.484 36.0391 164.297 36.1172C164.109 36.1953 163.91 36.2344 163.699 36.2344C163.512 36.2344 163.32 36.1992 163.125 36.1289C162.938 36.0586 162.77 35.9453 162.621 35.7891L151.488 24.1641V36H148.441V20.4961C148.441 20.1836 148.527 19.9023 148.699 19.6523C148.879 19.3945 149.105 19.2031 149.379 19.0781C149.668 18.9609 149.965 18.9336 150.27 18.9961C150.574 19.0508 150.836 19.1914 151.055 19.418L162.188 31.0312V19.1953H165.234V34.6992ZM182.602 29.1328H172.98V26.0625H182.602V29.1328ZM183.973 36H172.98C172.559 36 172.098 35.9258 171.598 35.7773C171.098 35.6289 170.633 35.3867 170.203 35.0508C169.781 34.707 169.426 34.2656 169.137 33.7266C168.855 33.1797 168.715 32.5117 168.715 31.7227V20.7305C168.715 20.5195 168.754 20.3203 168.832 20.1328C168.91 19.9453 169.016 19.7812 169.148 19.6406C169.289 19.5 169.453 19.3906 169.641 19.3125C169.828 19.2344 170.031 19.1953 170.25 19.1953H183.973V22.2422H171.762V31.7227C171.762 32.1211 171.867 32.4258 172.078 32.6367C172.289 32.8477 172.598 32.9531 173.004 32.9531H183.973V36Z" fill="white"/>
<rect x="135" y="17" width="3" height="8" rx="1" fill="#12FFA4"/>
<defs>
<linearGradient id="paint0_linear_5556_17904" x1="7.41266" y1="29.7825" x2="34.0765" y2="15.345" gradientUnits="userSpaceOnUse">
<stop stop-color="#ED1FFF"/>
<stop offset="0.164386" stop-color="#7867FC"/>
<stop offset="0.292124" stop-color="#46B5D4"/>
<stop offset="0.463949" stop-color="#24FCDC"/>
<stop offset="0.820802" stop-color="#52FA54"/>
<stop offset="1" stop-color="#F5923C"/>
</linearGradient>
</defs>
</svg>
