<svg width="19" height="18" viewBox="0 0 19 18" fill="none" xmlns="http://www.w3.org/2000/svg">
<path fill-rule="evenodd" clip-rule="evenodd" d="M11.5625 2.125C11.5625 2.67201 11.3452 3.19661 10.9584 3.58341C10.5716 3.9702 10.047 4.1875 9.5 4.1875C8.95299 4.1875 8.42839 3.9702 8.04159 3.58341C7.6548 3.19661 7.4375 2.67201 7.4375 2.125C7.4375 1.57799 7.6548 1.05339 8.04159 0.666592C8.42839 0.279799 8.95299 0.0625 9.5 0.0625C10.047 0.0625 10.5716 0.279799 10.9584 0.666592C11.3452 1.05339 11.5625 1.57799 11.5625 2.125ZM2.625 11.0625C3.17201 11.0625 3.69661 10.8452 4.08341 10.4584C4.4702 10.0716 4.6875 9.54701 4.6875 9C4.6875 8.45299 4.4702 7.92839 4.08341 7.54159C3.69661 7.1548 3.17201 6.9375 2.625 6.9375C2.07799 6.9375 1.55339 7.1548 1.16659 7.54159C0.779799 7.92839 0.5625 8.45299 0.5625 9C0.5625 9.54701 0.779799 10.0716 1.16659 10.4584C1.55339 10.8452 2.07799 11.0625 2.625 11.0625ZM11.5625 9C11.5625 9.54701 11.3452 10.0716 10.9584 10.4584C10.5716 10.8452 10.047 11.0625 9.5 11.0625C8.95299 11.0625 8.42839 10.8452 8.04159 10.4584C7.6548 10.0716 7.4375 9.54701 7.4375 9C7.4375 8.45299 7.6548 7.92839 8.04159 7.54159C8.42839 7.1548 8.95299 6.9375 9.5 6.9375C10.047 6.9375 10.5716 7.1548 10.9584 7.54159C11.3452 7.92839 11.5625 8.45299 11.5625 9ZM18.4375 9C18.4375 9.54701 18.2202 10.0716 17.8334 10.4584C17.4466 10.8452 16.922 11.0625 16.375 11.0625C15.828 11.0625 15.3034 10.8452 14.9166 10.4584C14.5298 10.0716 14.3125 9.54701 14.3125 9C14.3125 8.45299 14.5298 7.92839 14.9166 7.54159C15.3034 7.1548 15.828 6.9375 16.375 6.9375C16.922 6.9375 17.4466 7.1548 17.8334 7.54159C18.2202 7.92839 18.4375 8.45299 18.4375 9ZM16.375 4.1875C16.922 4.1875 17.4466 3.9702 17.8334 3.58341C18.2202 3.19661 18.4375 2.67201 18.4375 2.125C18.4375 1.57799 18.2202 1.05339 17.8334 0.666592C17.4466 0.279799 16.922 0.0625 16.375 0.0625C15.828 0.0625 15.3034 0.279799 14.9166 0.666592C14.5298 1.05339 14.3125 1.57799 14.3125 2.125C14.3125 2.67201 14.5298 3.19661 14.9166 3.58341C15.3034 3.9702 15.828 4.1875 16.375 4.1875ZM4.6875 2.125C4.6875 2.67201 4.4702 3.19661 4.08341 3.58341C3.69661 3.9702 3.17201 4.1875 2.625 4.1875C2.07799 4.1875 1.55339 3.9702 1.16659 3.58341C0.779799 3.19661 0.5625 2.67201 0.5625 2.125C0.5625 1.57799 0.779799 1.05339 1.16659 0.666592C1.55339 0.279799 2.07799 0.0625 2.625 0.0625C3.17201 0.0625 3.69661 0.279799 4.08341 0.666592C4.4702 1.05339 4.6875 1.57799 4.6875 2.125ZM9.5 17.9375C10.047 17.9375 10.5716 17.7202 10.9584 17.3334C11.3452 16.9466 11.5625 16.422 11.5625 15.875C11.5625 15.328 11.3452 14.8034 10.9584 14.4166C10.5716 14.0298 10.047 13.8125 9.5 13.8125C8.95299 13.8125 8.42839 14.0298 8.04159 14.4166C7.6548 14.8034 7.4375 15.328 7.4375 15.875C7.4375 16.422 7.6548 16.9466 8.04159 17.3334C8.42839 17.7202 8.95299 17.9375 9.5 17.9375ZM18.4375 15.875C18.4375 16.422 18.2202 16.9466 17.8334 17.3334C17.4466 17.7202 16.922 17.9375 16.375 17.9375C15.828 17.9375 15.3034 17.7202 14.9166 17.3334C14.5298 16.9466 14.3125 16.422 14.3125 15.875C14.3125 15.328 14.5298 14.8034 14.9166 14.4166C15.3034 14.0298 15.828 13.8125 16.375 13.8125C16.922 13.8125 17.4466 14.0298 17.8334 14.4166C18.2202 14.8034 18.4375 15.328 18.4375 15.875ZM2.625 17.9375C3.17201 17.9375 3.69661 17.7202 4.08341 17.3334C4.4702 16.9466 4.6875 16.422 4.6875 15.875C4.6875 15.328 4.4702 14.8034 4.08341 14.4166C3.69661 14.0298 3.17201 13.8125 2.625 13.8125C2.07799 13.8125 1.55339 14.0298 1.16659 14.4166C0.779799 14.8034 0.5625 15.328 0.5625 15.875C0.5625 16.422 0.779799 16.9466 1.16659 17.3334C1.55339 17.7202 2.07799 17.9375 2.625 17.9375Z" fill="#00FFA3"/>
</svg>
