<svg width="43" height="42" viewBox="0 0 43 42" fill="none" xmlns="http://www.w3.org/2000/svg">
<path d="M34.4288 10.7099C31.3329 8.21866 26.4353 7.79636 26.2257 7.78117C25.9006 7.75383 25.5907 7.93611 25.457 8.23688C25.4449 8.25511 25.3385 8.5012 25.2201 8.884C27.2678 9.23035 29.7834 9.92607 32.059 11.3388C32.4236 11.5636 32.536 12.0436 32.3112 12.4082C32.1623 12.6482 31.9102 12.7789 31.6489 12.7789C31.5091 12.7789 31.3663 12.7394 31.2387 12.6604C27.3255 10.2329 22.4401 10.1114 21.4983 10.1114C20.5564 10.1114 15.668 10.2329 11.7578 12.6604C11.3932 12.8882 10.9132 12.7758 10.6884 12.4112C10.4605 12.0436 10.5729 11.5666 10.9375 11.3388C13.2131 9.92911 15.7287 9.23035 17.7765 8.88704C17.658 8.5012 17.5516 8.25815 17.5425 8.23688C17.4058 7.93611 17.099 7.74775 16.7708 7.78117C16.5612 7.79636 11.6636 8.21866 8.52517 10.7433C6.88759 12.2593 3.60938 21.1184 3.60938 28.7775C3.60938 28.9142 3.64583 29.0449 3.71267 29.1633C5.97309 33.1372 12.1437 34.1762 13.5503 34.2218C13.5564 34.2218 13.5655 34.2218 13.5747 34.2218C13.8238 34.2218 14.0577 34.1033 14.2036 33.9028L15.6254 31.9463C11.7882 30.9558 9.82856 29.2727 9.71615 29.1725C9.3941 28.8899 9.36372 28.3977 9.64931 28.0757C9.93186 27.7537 10.424 27.7233 10.7461 28.0058C10.7917 28.0484 14.401 31.1108 21.4983 31.1108C28.6076 31.1108 32.217 28.0362 32.2535 28.0058C32.5755 27.7263 33.0647 27.7537 33.3503 28.0787C33.6328 28.4008 33.6024 28.8899 33.2804 29.1725C33.168 29.2727 31.2083 30.9558 27.3711 31.9463L28.793 33.9028C28.9388 34.1033 29.1727 34.2218 29.4219 34.2218C29.431 34.2218 29.4401 34.2218 29.4462 34.2218C30.8529 34.1762 37.0234 33.1372 39.2839 29.1633C39.3507 29.0449 39.3872 28.9142 39.3872 28.7775C39.3872 21.1184 36.1089 12.2593 34.4288 10.7099ZM16.4427 25.6665C14.9388 25.6665 13.7205 24.275 13.7205 22.5555C13.7205 20.8359 14.9388 19.4445 16.4427 19.4445C17.9466 19.4445 19.1649 20.8359 19.1649 22.5555C19.1649 24.275 17.9466 25.6665 16.4427 25.6665ZM26.5538 25.6665C25.0499 25.6665 23.8316 24.275 23.8316 22.5555C23.8316 20.8359 25.0499 19.4445 26.5538 19.4445C28.0577 19.4445 29.276 20.8359 29.276 22.5555C29.276 24.275 28.0577 25.6665 26.5538 25.6665Z" fill="white"/>
</svg>
